<svg width="506" height="531" viewBox="0 0 506 531" fill="none" xmlns="http://www.w3.org/2000/svg">
<g clip-path="url(#clip0_1307:5896)">
<path d="M354.049 981.741C359.211 989.199 364.502 996.528 369.536 1004.04C371.988 1007.75 375.059 1011.78 375.679 1015.88C376.298 1019.99 374.233 1024.61 373.356 1028.99C369.329 1028.09 364.089 1028.45 361.482 1026.03C349.067 1014.34 341.685 1000.06 342.408 982.412C345.109 917.032 347.777 851.652 350.409 786.272C350.667 779.897 350.409 773.497 350.409 766.71C320.468 760.98 291.043 754.167 261.18 750.012C236.71 746.605 219.598 732.953 205.53 714.965C191.463 696.977 179.874 678.163 167.768 660.536C163.587 690.241 195.154 740.36 234 763.148C222.075 776.31 210.357 789.42 198.458 802.402C170.066 833.526 139.092 861.45 99.2909 877.916C98.3875 878.277 97.6132 878.896 96.7098 879.258C69.3498 890.303 51.9013 909.737 44.6483 938.435C44.3159 939.677 43.8932 940.893 43.3836 942.074C42.9171 942.897 42.3999 943.69 41.8349 944.448C35.0207 937.248 30.7618 941.558 27.458 948.113C24.1541 954.668 21.2891 961.352 17.5981 969.095C15.146 963.933 13.5715 959.701 11.4033 955.933C8.64153 951.158 5.157 949.378 1.07881 954.694C-16.2664 976.553 -25.9973 1002.08 -0.727987 1030.41C26.9159 1061.38 56.3409 1090.86 84.2171 1121.67C94.6048 1133.51 103.941 1146.23 112.119 1159.69C121.953 1175.38 120.146 1193.11 117.281 1210.4C115.32 1221.78 112.119 1232.95 109.538 1244.23C104.553 1266.06 106.856 1288.92 116.094 1309.32C121.411 1321.48 129.722 1328.47 143.945 1326.64C157.676 1324.86 171.563 1324.06 185.243 1322.07C193.528 1320.8 200.213 1322.77 205.04 1329.06C215.597 1342.87 226.438 1356.55 235.626 1371.23C244.815 1385.92 240.453 1394.25 221.843 1399.62C217.068 1387.52 219.468 1372.03 205.169 1361.5C207.75 1369.25 210.977 1374.77 211.364 1380.5C211.957 1388.83 212.138 1397.92 209.273 1405.48C207.853 1409.27 199.31 1410.38 193.993 1412.71C192.702 1408.81 191.076 1404.96 190.173 1401.04C188.701 1394.46 187.591 1387.78 186.507 1381.14L182.016 1381.48C182.016 1388.24 182.3 1395.03 182.016 1401.79C181.242 1416.53 170.375 1422.07 157.96 1414.05C154.459 1411.73 151.312 1408.93 148.616 1405.71C133.13 1387.47 112.971 1382.64 90.2053 1385.07C87.9597 1385.27 85.74 1385.74 83.4944 1385.94C63.8262 1387.75 61.2708 1384.47 56.1344 1365.81C49.8478 1344.16 42.4035 1322.87 33.8334 1302.02C29.2906 1290.45 22.0118 1289.11 15.4299 1298.25V1282.97H9.36424C10.8305 1279.21 12.5554 1275.55 14.5265 1272.03C30.4005 1247.74 30.8909 1226.99 10.4483 1210.09C-2.5009 1199.6 -16.3164 1190.22 -30.8498 1182.06C-37.9221 1178.14 -41.0195 1174.76 -41.0195 1166.32C-40.7097 1059.37 -40.6409 952.406 -40.813 845.423V115.449L15.0944 119.397C6.83473 109.797 -4.05765 106.029 -15.0533 102.725C-21.5061 100.815 -28.3461 100.144 -34.8506 98.4928C-37.0445 97.8734 -38.7481 95.499 -40.6839 93.9248C-38.9546 91.7827 -37.5349 88.2212 -35.5217 87.7825C-7.69705 81.6144 20.3599 78.1304 48.8298 83.3952C51.3227 83.7029 53.8296 83.8838 56.3409 83.9371C49.3202 67.4717 34.84 59.8068 22.0634 50.3353L22.9926 47.7545C40.3378 52.2451 58.509 54.8259 74.8734 61.7166C91.2378 68.6073 106.337 79.9111 123.502 90.1052C119.682 79.7821 116.042 69.8719 112.506 60.2971C142.886 65.3039 173.524 87.1373 179.177 113.771C182.894 131.346 177.551 145.411 160.644 156.612C189.708 152.973 211.002 164.096 231.806 179.4C244.867 188.975 260.689 194.885 275.35 202.24C292.205 210.731 296.154 222.035 288.953 239.352C285.477 247.87 282.639 256.635 280.461 265.573C275.737 284.49 266.626 298.787 245.28 301.239C235.265 278.012 195.18 273.754 179.125 294.323C176.613 297.146 175.285 300.828 175.414 304.605C175.544 308.381 177.123 311.963 179.822 314.608C184.873 320.718 191.108 325.743 198.152 329.38C205.196 333.017 212.904 335.191 220.811 335.77C232.813 336.648 241.021 330.609 244.893 316.595C248.945 321.318 253.049 324.337 254.649 328.312C256.945 333.832 258.088 339.763 258.008 345.741C257.928 351.719 256.627 357.618 254.185 363.075C250.107 372.546 241.847 375.179 232.606 374.121C201.349 370.611 172.26 360.907 146.551 342.377C140.698 338.384 135.702 333.261 131.859 327.308C128.016 321.356 125.403 314.695 124.173 307.717C116.662 320.776 119.475 333.989 130.755 346.738C143.996 361.681 161.057 370.378 179.203 377.708C197.348 385.037 216.01 391.592 233.716 399.954C261.283 412.858 279.841 433.246 281.493 468.139C269.542 447.673 254.83 433.582 233.949 426.304C259.76 448.112 278.215 473.687 278.009 511.47C261.567 481.868 239.524 462.848 207.053 457.041C260.921 507.134 270.652 571.396 266.419 640.845C276.744 630.754 282.19 596.971 278.37 551.059C304.181 544.53 313.835 523.496 321.552 501.224C325.966 488.501 329.296 475.416 333.013 462.512C334.499 456.682 337.394 451.305 341.445 446.855C345.495 442.404 350.577 439.016 356.243 436.989C363.134 434.408 365.07 430.356 365.225 423.336C365.612 404.032 368.245 384.624 367.238 365.449C366.412 349.964 361.87 334.48 358.514 318.995C344.731 256.798 330.664 194.627 317.448 132.327C315.048 121.049 307.511 114.648 300.335 107.551C298.409 105.93 296.999 103.782 296.279 101.37C295.559 98.9576 295.561 96.3877 296.283 93.9764C299.329 81.3047 301.678 68.4008 304.852 53.2774C314.196 67.1104 322.688 79.0853 330.354 91.6279C331.722 93.8473 330.535 98.6218 329.012 101.409C322.481 113.281 322.12 124.997 325.166 138.314C339.517 200.976 352.913 263.895 368.451 326.712C368.89 321.911 369.561 317.137 369.768 312.337C371.678 266.657 373.175 220.925 375.627 175.245C376.272 163.374 379.989 151.425 391.656 145.153C395.347 143.166 400.69 144.25 405.258 143.915C405.439 148.741 407.633 155.038 405.258 158.109C398.96 166.78 390.856 174.136 383.009 182.497C391.191 200.563 400.69 219.919 408.82 239.791C439.632 316.034 457.758 396.804 462.482 478.9C465.063 520.632 464.005 562.569 464.237 604.43C464.237 609.875 464.96 613.127 470.587 615.45C479.105 618.96 486.074 624.534 488.655 634.264C489.177 635.768 490.15 637.075 491.442 638.006C503.651 647.039 504.09 659.22 501.535 672.64C500.662 676.756 501.021 681.037 502.567 684.95C508.581 697.854 507.136 708.745 494.824 715.92C483.848 721.913 472.239 726.665 460.211 730.088C452.106 732.669 448.673 736.566 446.995 745.031C432.593 818.377 410.679 889.142 372.142 953.868C366.593 963.365 360.269 972.295 354.049 981.741ZM387.242 206.266L385.332 206.628C385.048 209.699 384.609 212.796 384.506 215.867C382.544 264.902 381.228 313.679 378.415 362.533C377.176 384.005 384.403 403.412 387.707 423.93C403.013 423.93 419.067 420.084 425.288 440.163C414.809 442.047 403.787 439.131 395.966 448.189C406.084 449.196 415.893 448.989 425.03 451.415C434.967 453.996 430.966 463.364 431.07 470.229C431.173 477.094 425.778 475.958 421.339 475.7C418.138 475.494 414.912 475.029 411.711 475.029C408.511 475.029 406.007 475.545 402.445 475.907C411.84 483.649 428.824 475.649 430.657 493.817C432.386 510.876 419.635 512.322 407.659 515.109C415.944 553.072 424.023 589.952 432.102 627.063C443.175 622.753 443.227 622.779 444.027 612.74C444.569 606.34 445.137 599.836 445.447 593.487C450.725 478.183 436.269 362.823 402.703 252.385C398.083 236.849 392.43 221.622 387.242 206.266ZM427.043 741.547C407.71 748.179 390.546 754.451 373.072 759.793C365.044 762.374 362.283 765.935 362.024 774.555C360.321 831.849 357.946 889.116 355.752 946.41C355.572 951.571 355.236 956.939 354.978 962.204C389.643 892.574 411.324 819.099 427.043 741.547V741.547ZM366.929 663.736C368.667 663.834 370.41 663.651 372.091 663.194C389.643 653.129 407.246 643.116 424.514 632.56C426.166 631.554 426.527 626.857 426.011 624.147C423.791 612.456 421.029 600.92 418.448 589.281C413.157 565.589 407.84 541.897 402.393 517.586C392.069 521.432 387.19 528.839 384.041 537.407C378.879 551.059 380.841 567.034 370.155 578.854C369.819 579.216 370.155 580.093 370 580.738C368.916 608.017 367.961 635.322 366.929 663.736V663.736ZM355.133 664.846C356.294 636.948 357.353 611.088 358.437 585.074C345.118 586.287 345.221 586.339 338.949 595.707C326.276 614.65 313.525 633.515 299.69 654.058L355.133 664.846ZM179.461 221.854C184.841 221.143 190.157 220.013 195.361 218.473C206.176 214.447 209.015 205.57 200.755 197.492C194.937 192.224 187.655 188.849 179.874 187.814C166.271 186.11 153.753 194.653 153.417 203.479C153.03 213.286 164.413 221.08 179.461 221.854Z" fill="#348875" fill-opacity="1"/>
</g>
<defs>
<clipPath id="clip0_1307:5896">
<rect width="506" height="531" fill="white" transform="matrix(-1 0 0 1 506 0)"/>
</clipPath>
</defs>
</svg>
